<?xml version="1.0" encoding="UTF-8"?>
<svg version="1.1" xmlns="http://www.w3.org/2000/svg" width="228" height="224">
<path d="M0 0 C4.36047398 3.53265773 7.66010793 8.33751212 8.375 13.9375 C7.89289924 17.87465619 6.83173325 19.2408753 4 22 C-1.21774855 25.71262877 -4.60666429 26.83847026 -11 26 C-14.7593665 23.38932882 -17.21575698 19.18750912 -19 15 C-19.60463684 11.22101976 -19.39588896 9.66509345 -17.4375 6.375 C-12.06627694 1.14150061 -7.42593225 -1.29659134 0 0 Z " fill="#2556FF" transform="translate(102,167)"/>
<path d="M0 0 C4.27658463 3.48094098 7.48808213 7.35075691 8.2734375 12.94921875 C8.23341818 16.45090921 7.69401098 18.31632536 5.1640625 20.80859375 C0.68762151 23.99404749 -3.38132697 26.1080514 -9 26 C-13.84061451 24.38646183 -15.87196706 20.6959472 -18.11328125 16.34765625 C-19.44020668 12.83451887 -19.17589059 10.52767177 -18 7 C-14.02742007 1.43838809 -6.6254836 -2.50296047 0 0 Z " fill="#2556FF" transform="translate(187,118)"/>
<path d="M0 0 C5.10542711 2.20372507 9.05468734 4.41431425 11.9375 9.25 C12.04732066 15.8392395 8.90215343 20.78938926 4.6875 25.6875 C1.6503378 27.17076526 -0.53596931 27.35555212 -3.8671875 26.75390625 C-8.22234075 25.21444732 -12.89958412 22.20083175 -15 18 C-15.87101102 11.90292287 -13.96746168 8.74097589 -10.60546875 3.91796875 C-7.35590529 0.03588686 -4.88256191 -0.71019082 0 0 Z " fill="#2556FF" transform="translate(49,117)"/>
<path d="M0 0 C4.01453966 1.24564617 7.16922566 3.83127442 10.203125 6.68359375 C11.81692695 9.91119766 11.60248148 12.08938544 11.203125 15.68359375 C8.87182066 20.19865153 6.45251931 23.85066421 2.203125 26.68359375 C-3.43926489 27.78454788 -7.09774752 25.05345739 -11.72265625 22.19140625 C-13.796875 20.68359375 -13.796875 20.68359375 -14.796875 18.68359375 C-15.60045684 12.14014163 -14.17212048 8.90925031 -10.40234375 3.56640625 C-7.18955514 -0.20138963 -4.81437197 -0.7221558 0 0 Z " fill="#2556FF" transform="translate(183.796875,81.31640625)"/>
<path d="M0 0 C2.8125 2.1875 2.8125 2.1875 5 5 C5.598125 5.763125 6.19625 6.52625 6.8125 7.3125 C8.43411974 10.98248151 8.69013839 14.0517664 8 18 C5.61173963 22.56884592 1.96471484 24.53408034 -2.6953125 26.3828125 C-6.57571117 27.42197011 -8.49299623 26.91892659 -12 25 C-15.60139053 21.18348216 -18.32241296 17.08432727 -18.6875 11.75 C-17.84942575 7.17868591 -16.62989783 5.82325386 -13 3 C-12.236875 2.401875 -11.47375 1.80375 -10.6875 1.1875 C-7.03613215 -0.4258951 -3.9240655 -0.85167345 0 0 Z " fill="#2556FF" transform="translate(137,32)"/>
<path d="M0 0 C5.44358361 0.10946877 9.40323497 3.05999393 13.4375 6.5 C15.84630452 10.11320678 15.9913242 11.2276419 15.4375 15.5 C13.43274425 20.08009584 11.64465389 23.69523074 7.4375 26.5 C0.9052612 27.40099846 -2.35231082 25.86433209 -7.6796875 22.10546875 C-10.21625488 19.94254511 -11.4364104 18.16197038 -12.0625 14.875 C-11.12922808 8.57541456 -6.55224748 0.91961368 0 0 Z " fill="#2656FF" transform="translate(94.5625,31.5)"/>
<path d="M0 0 C5.44358361 0.10946877 9.40323497 3.05999393 13.4375 6.5 C15.84630452 10.11320678 15.9913242 11.2276419 15.4375 15.5 C13.43274425 20.08009584 11.64465389 23.69523074 7.4375 26.5 C0.9052612 27.40099846 -2.35231082 25.86433209 -7.6796875 22.10546875 C-10.21625488 19.94254511 -11.4364104 18.16197038 -12.0625 14.875 C-11.12922808 8.57541456 -6.55224748 0.91961368 0 0 Z " fill="#2555FF" transform="translate(130.5625,166.5)"/>
<path d="M0 0 C4.39400095 3.2699542 7.41877743 7.75594541 9 13 C8.79189414 17.02338004 8.06881255 18.98920232 5.12890625 21.76953125 C1.54533067 24.42150139 -1.73947794 26.37879507 -6.25 26.6875 C-11.78406989 25.67292052 -13.53440915 22.92042939 -16.8125 18.625 C-18.38770157 15.14297549 -18.47314209 12.78513668 -18 9 C-14.16484545 2.40353417 -7.60281297 -1.26713549 0 0 Z " fill="#2656FF" transform="translate(52,81)"/>
<path d="M0 0 C3.375 1.625 3.375 1.625 5 5 C5.59931366 9.74409976 5.8160356 14.27824916 5 19 C3.11929183 21.33453959 1.66715069 22.66642466 -1 24 C-2.93359586 24.14851844 -4.87342097 24.22130833 -6.8125 24.25 C-7.85019531 24.27578125 -8.88789063 24.3015625 -9.95703125 24.328125 C-13.39860214 23.95701851 -15.23540073 23.04491005 -18 21 C-20.34430431 16.31139138 -19.47086646 10.0912436 -19 5 C-15.5135509 -2.24108659 -6.99706851 -0.96856796 0 0 Z " fill="#2555FF" transform="translate(171,150)"/>
<path d="M0 0 C2.69967865 1.81338305 4.54026481 3.08052962 6 6 C6.14851844 7.93359586 6.22130833 9.87342097 6.25 11.8125 C6.27578125 12.85019531 6.3015625 13.88789062 6.328125 14.95703125 C5.95701851 18.39860214 5.04491005 20.23540073 3 23 C-1.68860862 25.34430431 -7.9087564 24.47086646 -13 24 C-16.375 22.375 -16.375 22.375 -18 19 C-18.85079999 12.85370349 -19.12619541 7.25239082 -16.3125 1.625 C-11.09922169 -0.93245729 -5.68448805 -1.02011234 0 0 Z " fill="#2655FF" transform="translate(170,51)"/>
<path d="M0 0 C3.3125 1.625 3.3125 1.625 5 5 C5.85531993 11.12613759 6.09257951 16.7307964 3.375 22.375 C-2.11471507 25.01819615 -8.03544625 25.03082276 -14 24 C-16.33453959 22.11929183 -17.66642466 20.66715069 -19 18 C-19.41251687 13.07359656 -19.6526414 8.52282992 -17.6875 3.9375 C-12.90012464 -1.55911615 -6.74816109 -0.75167251 0 0 Z " fill="#2555FF" transform="translate(72,150)"/>
<path d="M0 0 C3.95515383 3.21356249 3.95515383 3.21356249 4.3359375 6.70703125 C4.34882812 7.93808594 4.36171875 9.16914062 4.375 10.4375 C4.40335938 11.66082031 4.43171875 12.88414063 4.4609375 14.14453125 C3.91068852 18.29937736 3.18252373 19.90075968 0 22.625 C-3.49609375 23.2890625 -3.49609375 23.2890625 -7.4375 23.25 C-9.38462891 23.26933594 -9.38462891 23.26933594 -11.37109375 23.2890625 C-15.87102826 22.46560839 -17.3441607 21.31701902 -20 17.625 C-20.62890625 14.46875 -20.62890625 14.46875 -20.5625 11.125 C-20.56378906 10.0215625 -20.56507812 8.918125 -20.56640625 7.78125 C-19.8891033 4.00703772 -18.68877801 2.31865782 -16 -0.375 C-10.73121717 -2.13126094 -5.08214987 -2.32931869 0 0 Z " fill="#2556FF" transform="translate(73,52.375)"/>
<path d="M0 0 C4.11942283 2.83255252 7.49079142 6.21776997 8.875 11.0625 C7.59452261 15.36124552 5.47031656 18.17318585 2 21 C-1.375 22.375 -1.375 22.375 -5 22 C-8.98383375 19.55278784 -12.3912074 16.98532365 -13.79296875 12.4140625 C-14.08691637 8.98652237 -13.09305037 7.70071015 -11 5 C-7.6343549 1.48005598 -5.04236903 -0.71159381 0 0 Z " fill="#2556FF" transform="translate(117,13)"/>
<path d="M0 0 C3.46088903 1.38290754 4.95215003 2.27978755 7.0546875 5.43359375 C6.91796875 8.02734375 6.91796875 8.02734375 6.3671875 10.93359375 C6.19832031 11.89265625 6.02945313 12.85171875 5.85546875 13.83984375 C5.00578985 16.59197442 4.36393432 17.74907071 2.0546875 19.43359375 C-3.68978653 20.10941422 -7.784371 18.74711925 -12.9453125 16.43359375 C-14.2226605 13.87889775 -13.91395427 12.38679602 -13.6328125 9.55859375 C-13.55417969 8.69492187 -13.47554687 7.83125 -13.39453125 6.94140625 C-12.93909001 4.39885601 -12.30440476 2.62187949 -10.9453125 0.43359375 C-7.45853492 -1.30979504 -3.70963694 -1.08011517 0 0 Z " fill="#2556FF" transform="translate(73.9453125,26.56640625)"/>
<path d="M0 0 C2.40921559 4.14920463 3.90028908 9.15655066 3.125 13.9375 C1.8125 16.1875 1.8125 16.1875 -0.875 17.9375 C-10.09108269 19.99328779 -10.09108269 19.99328779 -14.171875 17.578125 C-17.25645136 14.6067441 -16.94593976 10.87865964 -17.125 6.8125 C-16.875 2.9375 -16.875 2.9375 -15.625 1 C-11.33545744 -1.60436513 -4.44974154 -2.52152021 0 0 Z " fill="#2555FF" transform="translate(165.875,27.0625)"/>
<path d="M0 0 C2.32369365 1.75847087 3.63463492 3.11703438 4.75 5.8125 C5.69257951 14.06007067 5.69257951 14.06007067 3.25 17.375 C-0.92237403 20.38838124 -4.90421475 20.45498083 -10 20 C-12.90717073 17.78136971 -13.83981643 16.48055071 -15 13 C-15.71395881 6.18993135 -15.71395881 6.18993135 -13.875 3.125 C-9.49296791 0.49578075 -5.08290367 -0.66298744 0 0 Z " fill="#2555FF" transform="translate(43,58)"/>
<path d="M0 0 C4.26704904 1.69071754 5.87368106 3.43908168 8.3125 7.3125 C9.4375 10.875 9.4375 10.875 9.3125 14.3125 C7 17.125 7 17.125 4.3125 19.3125 C3.6525 19.9725 2.9925 20.6325 2.3125 21.3125 C-1 21.75 -1 21.75 -4.6875 21.3125 C-7.5 18.9375 -7.5 18.9375 -9.6875 16.3125 C-10.3475 15.6525 -11.0075 14.9925 -11.6875 14.3125 C-12.3125 11.125 -12.3125 11.125 -11.6875 7.3125 C-8.46447036 3.02872643 -5.40058623 0.4576768 0 0 Z " fill="#2555FF" transform="translate(115.6875,189.6875)"/>
<path d="M0 0 C0.86625 0.14824219 1.7325 0.29648438 2.625 0.44921875 C5.60224643 1.53140865 6.52580814 2.52520347 8 5.3125 C8.1796875 7.75 8.1796875 7.75 7.875 10.3125 C7.78992188 11.158125 7.70484375 12.00375 7.6171875 12.875 C6.90981898 15.66865795 5.94822229 17.20389137 4 19.3125 C-0.64862301 20.93411268 -3.85167538 19.97349152 -8.265625 18.296875 C-10 17.3125 -10 17.3125 -12 14.3125 C-12.08203125 11.97265625 -12.08203125 11.97265625 -11.8125 9.375 C-11.73644531 8.52035156 -11.66039063 7.66570312 -11.58203125 6.78515625 C-10.91198392 3.93857936 -9.99232045 2.43795881 -8 0.3125 C-4.73296469 -0.77651177 -3.32516714 -0.61852067 0 0 Z " fill="#2555FF" transform="translate(40,146.6875)"/>
<path d="M0 0 C2.91269772 1.8578656 5.42832709 3.85665419 7 7 C7.5625 10.1875 7.5625 10.1875 7 14 C4.73996309 17.0114705 2.26413318 19.12986394 -1 21 C-4.90043446 21.40349322 -6.70967454 21.00544841 -9.8046875 18.59375 C-12.79639896 15.56067847 -13.93449704 13.7467337 -14.3125 9.4375 C-11.94947302 3.24861982 -6.99997723 -1.63829254 0 0 Z " fill="#2555FF" transform="translate(206,102)"/>
<path d="M0 0 C0.66 0.33 1.32 0.66 2 1 C2 1.66 2 2.32 2 3 C2.66 3 3.32 3 4 3 C6.49309382 5.3972056 6.98881544 6.92450422 7.5 10.375 C6.84053371 15.15613064 5.37565893 16.62434107 2 20 C-0.90295805 21.45147903 -2.77261779 21.37239025 -6 21 C-9.51859983 18.56404627 -12.83847896 16.25891049 -14 12 C-14.07073901 8.74600573 -13.67316379 6.81371448 -11.578125 4.28125 C-7.84971284 0.78380142 -5.29354532 -0.86173994 0 0 Z " fill="#2555FF" transform="translate(29,102)"/>
<path d="M0 0 C3.1875 2 3.1875 2 5 5 C5.44603032 9.55942109 4.50728266 13.04396729 2.375 17.0625 C0 19 0 19 -3.3125 19.5 C-7.50801015 18.93111727 -10.2560202 17.94686949 -14 16 C-15.59777918 12.80444164 -15.37410964 9.47663959 -15 6 C-11.80293595 -1.99266013 -7.84638195 -1.74637341 0 0 Z " fill="#2556FF" transform="translate(164,180)"/>
<path d="M0 0 C3.24266616 0.95579491 5.01601727 2.00841935 7.16015625 4.63671875 C7.98761292 10.1186192 6.64396477 13.86016391 4.16015625 18.63671875 C0.17900897 20.62729239 -4.55315229 20.00034894 -8.71484375 18.82421875 C-10.83984375 17.63671875 -10.83984375 17.63671875 -12.83984375 14.63671875 C-13.16873933 9.66111891 -12.49284901 5.67744588 -9.83984375 1.44921875 C-6.15509681 -0.77698252 -4.1541994 -0.75593946 0 0 Z " fill="#2655FF" transform="translate(193.83984375,58.36328125)"/>
<path d="M0 0 C2.4375 1.375 2.4375 1.375 4 4 C5.98453454 12.2964569 5.98453454 12.2964569 3.7109375 16.23046875 C1.11740384 18.91282206 -1.38280421 19.32560756 -5 20 C-8.61598805 19.86092354 -10.27709776 19.74782991 -12.8125 17.125 C-15.10292171 13.02635063 -15.40714587 9.64146295 -15 5 C-11.1036119 -0.10561199 -6.17901986 -0.83466599 0 0 Z " fill="#2555FF" transform="translate(196,147)"/>
<path d="M0 0 C2.32369365 1.75847087 3.63463492 3.11703438 4.75 5.8125 C5.6958012 14.0882605 5.6958012 14.0882605 3.1875 17.375 C-0.89508793 20.40777961 -5.09667627 20.55393197 -10 20 C-12.56501203 18.46099278 -13.00615441 16.9864603 -14.25 14.25 C-15.13919047 10.39684128 -15.00888429 7.81934768 -14 4 C-10.13853028 0.00537615 -5.37393423 -0.55978482 0 0 Z " fill="#2555FF" transform="translate(75,179)"/>
<path d="M0 0 C3.43628834 1.46042254 5.24996016 3.08450609 7.5 6.0625 C7.70286633 9.30836127 7.32647421 11.04948616 5.25390625 13.58984375 C2.92713147 15.77157283 1.14696573 17.01516104 -2.0625 17.25 C-5.67933739 15.48795102 -7.38443443 13.46022652 -9.5 10.0625 C-9.02717273 6.12227278 -7.90554103 4.48996217 -5.1875 1.625 C-2.5 0.0625 -2.5 0.0625 0 0 Z " fill="#2555FF" transform="translate(83.5,5.9375)"/>
<path d="M0 0 C4.94942337 0.23948823 8.29999334 0.45416029 12 4 C11.52830189 11.0754717 11.52830189 11.0754717 9.5 14.625 C6.01187551 16.54346847 3.78725404 15.77766086 0.0234375 14.87109375 C-2 14 -2 14 -4 11 C-3.828125 8.80859375 -3.828125 8.80859375 -3.25 6.4375 C-3.06953125 5.65246094 -2.8890625 4.86742187 -2.703125 4.05859375 C-2 2 -2 2 0 0 Z " fill="#2656FF" transform="translate(187,173)"/>
<path d="M0 0 C1.8754696 3.75093919 3 6.09507299 3 10.3125 C2 13 2 13 -0.1875 14.375 C-3.96270587 15.21393464 -7.29990985 15.93798077 -10.8125 14 C-12.6774541 10.85902467 -13.13653334 7.63330401 -13 4 C-9.97615119 -0.68696565 -5.06835325 -0.09562931 0 0 Z " fill="#2556FF" transform="translate(220,126)"/>
<path d="M0 0 C0.78503906 0.08894531 1.57007813 0.17789062 2.37890625 0.26953125 C3.55259766 0.38361328 3.55259766 0.38361328 4.75 0.5 C7.3573221 1.19249731 8.37739722 1.89241861 9.94140625 4.08203125 C9.87281074 8.40354813 9.5745034 10.97411123 7.44140625 14.70703125 C3.95328176 16.62549972 1.72866029 15.85969211 -2.03515625 14.953125 C-4.05859375 14.08203125 -4.05859375 14.08203125 -6.05859375 11.08203125 C-5.88671875 8.890625 -5.88671875 8.890625 -5.30859375 6.51953125 C-5.128125 5.73449219 -4.94765625 4.94945312 -4.76171875 4.140625 C-3.81856114 1.37926911 -3.02165275 0.12040742 0 0 Z " fill="#2556FF" transform="translate(181.05859375,27.91796875)"/>
<path d="M0 0 C2.06845419 2.44453678 2.0373726 4.35503972 2.375 7.5625 C2 11 2 11 0.4375 12.875 C-2.77948885 14.35976409 -5.46071534 14.87129874 -9 15 C-11.14860073 13.49597949 -11.83552492 12.32895015 -13 10 C-13.13415472 7.3276379 -13.04318541 4.67749512 -13 2 C-8.28739915 -0.35630042 -5.24493522 -1.82962856 0 0 Z " fill="#2555FF" transform="translate(141,5)"/>
<path d="M0 0 C1.87608065 3.30547543 2.49641413 6.22725262 2 10 C0.73289389 12.21743569 -0.41603153 12.82766111 -2.83984375 13.54296875 C-6.40559903 14.21362291 -8.2821774 14.44173698 -11.4375 12.5 C-13.45415484 9.27335225 -13.86235126 6.78534024 -14 3 C-12 0 -12 0 -8.6875 -1.3125 C-4.7828344 -2.0404885 -3.29173021 -2.16313699 0 0 Z " fill="#2656FF" transform="translate(99,207)"/>
<path d="M0 0 C0.680625 0.09667969 1.36125 0.19335938 2.0625 0.29296875 C4 0.8125 4 0.8125 7 2.8125 C7.30537066 6.59909614 7.31331392 9.5905757 6.375 13.25 C5 14.8125 5 14.8125 2.25 15.75 C-1.6479784 15.82496112 -3.69628465 14.81009533 -7 12.8125 C-7.33 12.4825 -7.66 12.1525 -8 11.8125 C-7.984375 9.8515625 -7.984375 9.8515625 -7.75 7.4375 C-7.64945313 6.25027344 -7.64945313 6.25027344 -7.546875 5.0390625 C-6.47648331 0.68103921 -4.35095595 -0.70043798 0 0 Z " fill="#2556FF" transform="translate(46,181.1875)"/>
<path d="M0 0 C4.09363113 1.19813594 6.08542579 4.41318526 8.5625 7.75 C7.25204637 11.68136089 5.73041954 14.06206827 2.5625 16.75 C-0.4375 17.75 -0.4375 17.75 -2.9375 16.5625 C-5.44274917 14.74619435 -6.9912925 13.48172528 -8.4375 10.75 C-8.4375 7.12868457 -7.46541232 5.7848904 -5.1875 2.9375 C-2.4375 0.75 -2.4375 0.75 0 0 Z " fill="#2756FF" transform="translate(146.4375,201.25)"/>
<path d="M0 0 C4.0743356 0.84881992 5.54405875 2.30225596 8 5.625 C8.6875 8.625 8.6875 8.625 8 11.625 C5.375 14.5625 5.375 14.5625 2 16.625 C-1.125 16.75 -1.125 16.75 -4 15.625 C-6.55257017 13.20677563 -7.78934979 11.56122316 -8.5625 8.125 C-7.50109364 3.40763841 -4.65431864 0.96964972 0 0 Z " fill="#2556FF" transform="translate(212,72.375)"/>
<path d="M0 0 C5.42848361 0.27602459 5.42848361 0.27602459 7.6875 2.1875 C9.01891623 6.00422652 8.79442987 8.43676703 7.25 12.0625 C6.734375 13.09375 6.21875 14.125 5.6875 15.1875 C0.7475659 15.47808436 -2.41075673 15.40070034 -6.3125 12.1875 C-7.3125 10.4375 -7.3125 10.4375 -7.3125 8.1875 C-4.35137618 0.24630431 -4.35137618 0.24630431 0 0 Z " fill="#2555FF" transform="translate(37.3125,35.8125)"/>
<path d="M0 0 C3.91677401 1.05084181 6.31041368 3.35283183 8.5625 6.6875 C8.83172892 10.36696186 7.63650129 11.59235548 5.375 14.5 C2.5625 16.6875 2.5625 16.6875 -0.4375 17.375 C-3.4375 16.6875 -3.4375 16.6875 -6.375 14 C-8.4375 10.6875 -8.4375 10.6875 -8.5625 8.125 C-6.7040301 4.09831522 -4.35824113 1.2292475 0 0 Z " fill="#2556FF" transform="translate(16.4375,135.3125)"/>
<path d="M0 0 C2.61295319 3.35951124 2.15794443 6.89344484 2 11 C-1.77547058 12.88773529 -4.0649664 14.01764214 -8.3125 13.9375 C-11 13 -11 13 -12.375 11.375 C-13.24325902 8.07561574 -13.37033806 5.39476556 -13 2 C-9.03891031 -2.24402466 -5.01425862 -2.77103766 0 0 Z " fill="#2655FF" transform="translate(19,85)"/>
</svg>
